<svg width="21" height="22" viewBox="0 0 21 22" fill="none" xmlns="http://www.w3.org/2000/svg">
<g clip-path="url(#clip0_8002_1742)">
<path d="M8.47458 1.87417C9.33952 0.254548 11.66 0.254548 12.525 1.87417L20.5076 16.8078C20.6946 17.1577 20.7879 17.5501 20.7781 17.9468C20.7684 18.3435 20.6561 18.7309 20.4522 19.0712C20.2482 19.4116 19.9596 19.6933 19.6144 19.8889C19.2692 20.0845 18.8792 20.1874 18.4824 20.1875H2.51714C2.12036 20.1874 1.73036 20.0845 1.38515 19.8889C1.03994 19.6933 0.751299 19.4116 0.547349 19.0712C0.343399 18.7309 0.231099 18.3435 0.221391 17.9468C0.211683 17.5501 0.304899 17.1577 0.491954 16.8078L8.47458 1.87417ZM10.7885 2.80211C10.7604 2.75002 10.7187 2.70651 10.6679 2.67618C10.6171 2.64585 10.559 2.62984 10.4998 2.62984C10.4406 2.62984 10.3825 2.64585 10.3316 2.67618C10.2808 2.70651 10.2391 2.75002 10.211 2.80211L2.22839 17.7357C2.20165 17.7857 2.18829 17.8417 2.18963 17.8984C2.19097 17.955 2.20696 18.0103 2.23603 18.059C2.26511 18.1076 2.30628 18.1479 2.35554 18.1759C2.40481 18.2039 2.46048 18.2186 2.51714 18.2187H18.4824C18.5391 18.2186 18.5947 18.2039 18.644 18.1759C18.6933 18.1479 18.7344 18.1076 18.7635 18.059C18.7926 18.0103 18.8086 17.955 18.8099 17.8984C18.8112 17.8417 18.7979 17.7857 18.7711 17.7357L10.7885 2.80211ZM11.4841 8.04686V11.3281C11.4841 11.5892 11.3804 11.8396 11.1958 12.0242C11.0112 12.2088 10.7608 12.3125 10.4998 12.3125C10.2387 12.3125 9.98831 12.2088 9.80371 12.0242C9.6191 11.8396 9.51539 11.5892 9.51539 11.3281V8.04686C9.51539 7.78579 9.6191 7.53541 9.80371 7.3508C9.98831 7.1662 10.2387 7.06249 10.4998 7.06249C10.7608 7.06249 11.0112 7.1662 11.1958 7.3508C11.3804 7.53541 11.4841 7.78579 11.4841 8.04686ZM11.8123 14.9375C11.8123 15.2856 11.674 15.6194 11.4278 15.8656C11.1817 16.1117 10.8479 16.25 10.4998 16.25C10.1517 16.25 9.81783 16.1117 9.57169 15.8656C9.32555 15.6194 9.18727 15.2856 9.18727 14.9375C9.18727 14.5894 9.32555 14.2555 9.57169 14.0094C9.81783 13.7633 10.1517 13.625 10.4998 13.625C10.8479 13.625 11.1817 13.7633 11.4278 14.0094C11.674 14.2555 11.8123 14.5894 11.8123 14.9375Z" fill="white"/>
</g>
<defs>
<clipPath id="clip0_8002_1742">
<rect width="21" height="21" fill="white" transform="translate(0 0.5)"/>
</clipPath>
</defs>
</svg>
