<svg width="18" height="18" viewBox="0 0 18 18" fill="none" xmlns="http://www.w3.org/2000/svg">
<path d="M6.01532 5.81793L1.35947 6.49295L1.27701 6.50974C1.15218 6.54288 1.03838 6.60855 0.947229 6.70006C0.85608 6.79156 0.79085 6.90562 0.7582 7.03058C0.72555 7.15555 0.726649 7.28693 0.761386 7.41133C0.796122 7.53573 0.863252 7.64868 0.955919 7.73865L4.32886 11.0218L3.53342 15.6594L3.52393 15.7397C3.51629 15.8688 3.5431 15.9976 3.60162 16.113C3.66013 16.2283 3.74825 16.326 3.85695 16.3961C3.96565 16.4662 4.09102 16.5062 4.22023 16.5119C4.34944 16.5176 4.47785 16.4888 4.5923 16.4286L8.75629 14.2393L12.9108 16.4286L12.9838 16.4622C13.1042 16.5096 13.2351 16.5242 13.3631 16.5043C13.491 16.4845 13.6114 16.431 13.7118 16.3492C13.8122 16.2675 13.8891 16.1606 13.9345 16.0394C13.98 15.9181 13.9924 15.787 13.9704 15.6594L13.1742 11.0218L16.5486 7.73792L16.6056 7.67589C16.6869 7.57574 16.7402 7.45583 16.7601 7.32837C16.7799 7.20092 16.7657 7.07047 16.7187 6.95031C16.6718 6.83016 16.5938 6.7246 16.4928 6.64439C16.3918 6.56417 16.2713 6.51217 16.1436 6.49368L11.4878 5.81793L9.40651 1.59993C9.34628 1.47772 9.25305 1.37481 9.13736 1.30285C9.02168 1.23089 8.88816 1.19275 8.75191 1.19275C8.61567 1.19275 8.48215 1.23089 8.36646 1.30285C8.25078 1.37481 8.15754 1.47772 8.09732 1.59993L6.01532 5.81793Z" fill="#FFB00E"/>
</svg>
